<svg width="131.5707832396629" height="164.0078125"
    viewBox="0 0 264.47796055574827 329.6814892877634" class="css-1j8o68f">
    <defs id="SvgjsDefs8947"></defs>
    <g id="SvgjsG8948" featurekey="symbolFeature-0"
        transform="matrix(2.124320968319263,0,0,2.124320968319263,560.2099953015809,-755.4086141292872)"
        fill="#c49dc4">
        <path xmlns="http://www.w3.org/2000/svg"
            d="M-219.1,415c2.3,2.3,6,2.3,8.3,0c1.1-1.1,1.7-2.6,1.7-4.2s-0.6-3-1.7-4.2l-0.8-0.8l4.9-4.9l-3.5-3.5    c-3.1,2.4-7.7,2.2-10.5-0.7c-1.5-1.5-2.3-3.5-2.3-5.7c0-1.8,0.6-3.5,1.6-4.9l-3.5-3.5l-4.9,4.9l-0.8-0.8c-1.1-1.1-2.6-1.7-4.2-1.7    c-1.6,0-3,0.6-4.2,1.7c-1.1,1.1-1.7,2.6-1.7,4.2s0.6,3,1.7,4.2l0.8,0.8l-4.8,4.8c0.2,0.2,0.5,0.5,0.7,0.7l0,0l8,8l9.4,9.4l4.8-4.8    L-219.1,415z"></path>
        <path xmlns="http://www.w3.org/2000/svg"
            d="M-191.2,415c1.1-1.1,1.7-2.6,1.7-4.2s-0.6-3-1.7-4.2c-1.1-1.1-2.6-1.7-4.2-1.7c-1.6,0-3,0.6-4.2,1.7l-0.8,0.8l-4.9-4.9    l-3.5,3.5c1.1,1.4,1.6,3.1,1.6,4.9c0,2.1-0.8,4.2-2.3,5.7c-2.9,2.9-7.4,3.1-10.5,0.7l-3.3,3.3l18,18l18-18l-4.8-4.8L-191.2,415z"></path>
        <path xmlns="http://www.w3.org/2000/svg"
            d="M-209.3,377.2c-1.5,1.5-3.5,2.3-5.7,2.3c-1.8,0-3.5-0.6-4.9-1.6l-3.5,3.5l4.9,4.9l-0.8,0.8c-1.1,1.1-1.7,2.6-1.7,4.2    s0.6,3,1.7,4.2c2.3,2.3,6,2.3,8.3,0l0.8-0.8l4.9,4.9l3.5-3.5c-2.4-3.1-2.2-7.7,0.7-10.5c1.5-1.5,3.5-2.3,5.7-2.3    c1.8,0,3.5,0.6,4.9,1.6l3.5-3.5l-4.9-4.9l0.8-0.8c1.1-1.1,1.7-2.6,1.7-4.2s-0.6-3-1.7-4.2c-1.1-1.1-2.6-1.7-4.2-1.7    c-1.6,0-3,0.6-4.2,1.7l-0.8,0.8l-4.9-4.9l-3.5,3.5C-206.2,369.8-206.4,374.3-209.3,377.2z"></path>
        <path xmlns="http://www.w3.org/2000/svg"
            d="M-234.6,363.5c2.1,0,4.2,0.8,5.7,2.3s2.3,3.5,2.3,5.7c0,1.8-0.6,3.5-1.6,4.9l3.5,3.5l4.9-4.9l0.8,0.8    c1.1,1.1,2.6,1.7,4.2,1.7c1.6,0,3-0.6,4.2-1.7c2.3-2.3,2.3-6,0-8.3l-0.8-0.8l4.9-4.9l-0.4-0.4c-4.5-3.4-10.1-5.4-16.1-5.4    c-7.1,0-13.5,2.8-18.3,7.2l2.1,2.1C-238.1,364.1-236.4,363.5-234.6,363.5z"></path>
        <path xmlns="http://www.w3.org/2000/svg"
            d="M-175.7,399.2c-2.1,0-4.2-0.8-5.7-2.3c-2.9-2.9-3.1-7.4-0.7-10.5l-3.5-3.5l-4.9,4.9l-0.8-0.8c-1.1-1.1-2.6-1.7-4.2-1.7    c-1.6,0-3,0.6-4.2,1.7c-2.3,2.3-2.3,6,0,8.3l0.8,0.8l-4.9,4.9l3.5,3.5c1.4-1.1,3.1-1.6,4.9-1.6c2.1,0,4.2,0.8,5.7,2.3    c1.5,1.5,2.3,3.5,2.3,5.7c0,1.8-0.6,3.5-1.6,4.9l3.3,3.3l9.5-9.5l7.9-7.9l0,0c0.3-0.2,0.5-0.5,0.7-0.7l-3.3-3.3    C-172.2,398.6-173.9,399.2-175.7,399.2z"></path>
        <path xmlns="http://www.w3.org/2000/svg"
            d="M-200.2,365.1c1.4-1.1,3.1-1.6,4.9-1.6c2.1,0,4.2,0.8,5.7,2.3c1.5,1.5,2.3,3.5,2.3,5.7c0,1.8-0.6,3.5-1.6,4.9l3.5,3.5    l4.9-4.9l0.8,0.8c1.1,1.1,2.6,1.7,4.2,1.7c1.6,0,3-0.6,4.2-1.7c2.3-2.3,2.3-6,0-8.3l-0.8-0.8l3.8-3.8c-4.8-4.5-11.2-7.3-18.3-7.3    c-6,0-11.5,2-15.9,5.3l-0.9,0.9L-200.2,365.1z"></path>
        <path xmlns="http://www.w3.org/2000/svg"
            d="M-170,377.2c-1.5,1.5-3.5,2.3-5.7,2.3c-1.8,0-3.5-0.6-4.9-1.6l-3.5,3.5l4.9,4.9l-0.8,0.8c-2.3,2.3-2.3,6,0,8.3    c1.1,1.1,2.6,1.7,4.2,1.7c1.6,0,3-0.6,4.2-1.7l0.8-0.8l4.7,4.7c3.8-4.6,6.1-10.5,6.1-17c0-6.9-2.6-13.2-6.9-18l-2.4,2.4    C-166.9,369.8-167.1,374.3-170,377.2z"></path>
    </g>
    <g id="SvgjsG8949" featurekey="nameFeature-0"
        transform="matrix(2.308836127881131,0,0,2.308836127881131,-8.433256607485298,169.75515453650874)"
        fill="#ddc4ea">
        <path
            d="M20.293 16.934 l-10.742 0 l0 6.4063 l9.2773 0 l0 5.0977 l-9.2773 0 l0 11.563 l-5.8984 0 l0 -28.223 l16.641 0 l0 5.1563 z M68.71056250000001 40 l-6.4453 0 l-1.8555 -2.3242 c-2.5586 1.6992 -5.6055 2.7148 -8.9453 2.7148 c-5.6836 0 -9.9414 -2.9492 -9.9414 -8.3008 c0 -4.082 2.5 -6.0742 7.2656 -9.043 l-0.23438 -0.29297 c-1.8945 -2.4023 -2.5391 -4.043 -2.5391 -5.625 c0 -1.875 0.82031 -3.3008 2.1875 -4.2773 c1.3281 -0.97656 3.2031 -1.4844 5.3516 -1.4844 c4.7461 0 7.6953 2.4023 7.6953 5.8594 c0 2.4609 -1.5234 4.4531 -5.4297 6.7969 l5.0977 6.3086 c1.4453 -2.207 2.2266 -4.7656 2.2266 -6.9727 l5.0781 0 c0 4.0039 -1.5234 7.9102 -4.082 10.977 z M51.953562500000004 15.625 c-0.42969 0.37109 -0.64453 0.9375 -0.64453 1.582 c0 0.9375 0.44922 1.7188 1.4844 3.0469 l0.44922 0.56641 c2.0508 -1.2305 3.0273 -2.4805 3.0273 -3.6914 c0 -1.3086 -1.1133 -2.1094 -2.5391 -2.1094 c-0.76172 0 -1.3477 0.21484 -1.7773 0.60547 z M51.6995625 35.7812 c2.1875 0 4.1406 -0.70313 5.7617 -1.8164 l-5.9375 -7.4609 c-2.8516 1.7383 -4.8047 2.9492 -4.8047 5.4492 c0 2.5195 2.0117 3.8281 4.9805 3.8281 z M104.8629375 40.39063 c-8.3008 0 -14.434 -5.6445 -14.434 -14.512 s6.1328 -14.492 14.434 -14.492 c6.2891 0 11.328 3.2227 13.34 8.5742 l-5.4688 1.9922 c-1.25 -3.2813 -4.2383 -5.1758 -7.8711 -5.1758 c-4.8633 0 -8.5938 3.3984 -8.5938 9.1016 s3.7305 9.1211 8.5938 9.1211 c3.6328 0 6.6211 -1.9141 7.8711 -5.1953 l5.4688 1.9922 c-2.0117 5.3516 -7.0508 8.5938 -13.34 8.5938 z"></path>
    </g>
    <g id="SvgjsG8950" featurekey="nameFeature-1"
        transform="matrix(1.207965671144855,0,0,1.207965671144855,-4.41185172494619,268.80074864801526)"
        fill="#ddc4ea">
        <path
            d="M3.6523 40 l0 -28.223 l10.215 0 c9.0039 0 13.457 5.6641 13.457 14.102 c0 8.457 -4.4531 14.121 -13.457 14.121 l-10.215 0 z M9.5117 34.8242 l4.0625 0 c5.1953 0 7.5781 -3.2422 7.5781 -8.9453 s-2.3828 -8.9453 -7.5781 -8.9453 l-4.0625 0 l0 17.891 z M49.1598125 40.39063 c-8.3008 0 -14.434 -5.6641 -14.434 -14.512 c0 -8.8672 6.1328 -14.492 14.434 -14.492 c8.2813 0 14.414 5.625 14.414 14.492 c0 8.8477 -6.1328 14.512 -14.414 14.512 z M49.1598125 35.0195 c4.8633 0 8.5938 -3.418 8.5938 -9.1406 c0 -5.7031 -3.7305 -9.1016 -8.5938 -9.1016 s-8.5938 3.3984 -8.5938 9.1016 c0 5.7227 3.7305 9.1406 8.5938 9.1406 z M91.69915625 40 l-2.0508 -5.8203 l-11.855 0 l-2.0508 5.8203 l-5.9961 0 l10.391 -28.223 l7.168 0 l10.391 28.223 l-5.9961 0 z M79.51215625 29.277 l8.418 0 l-4.1992 -11.973 z M118.28090625 35 c3.6328 0 6.6211 -1.9141 7.8711 -5.1953 l5.4688 1.9922 c-1.875 5.0195 -6.4258 8.1836 -12.168 8.5547 l-1.1523 2.0508 c0.29297 -0.058594 0.60547 -0.11719 0.87891 -0.11719 c2.207 0 3.8281 1.543 3.8281 3.75 c0 2.4414 -1.9141 4.3555 -4.3555 4.3555 c-2.2852 0 -4.043 -1.3086 -4.668 -2.9492 l2.4805 -0.85938 c0.39063 0.78125 1.2695 1.25 2.0703 1.25 c0.97656 0 1.8359 -0.70313 1.8359 -1.7969 c0 -1.1719 -0.85938 -1.7773 -1.875 -1.7773 c-0.54688 0 -1.0742 0.19531 -1.4453 0.60547 l-2.0508 -1.2109 l1.8164 -3.3203 c-7.5391 -0.625 -12.969 -6.1133 -12.969 -14.453 c0 -8.8672 6.1328 -14.492 14.434 -14.492 c6.2891 0 11.328 3.2227 13.34 8.5742 l-5.4688 1.9922 c-1.25 -3.2813 -4.2383 -5.1758 -7.8711 -5.1758 c-4.8633 0 -8.5938 3.3984 -8.5938 9.1016 s3.7305 9.1211 8.5938 9.1211 z M155.68409375 8.945 c-1.8164 0 -2.6758 -0.80078 -3.3203 -1.5625 c-0.56641 -0.70313 -0.97656 -1.3672 -1.8555 -1.3672 c-1.1133 0 -1.6406 1.1523 -1.6406 2.6758 l-2.9492 0 c0 -3.0273 1.6797 -5.2148 4.4922 -5.2148 c1.6992 0 2.6367 0.70313 3.2813 1.4258 c0.66406 0.70313 1.0938 1.4844 1.9922 1.4844 c1.0742 0 1.5234 -1.0352 1.5234 -2.6367 l2.9883 0 c0 2.9102 -1.543 5.1953 -4.5117 5.1953 z M152.77309375 40.39063 c-8.3008 0 -14.434 -5.6641 -14.434 -14.512 c0 -8.8672 6.1328 -14.492 14.434 -14.492 c8.2813 0 14.414 5.625 14.414 14.492 c0 8.8477 -6.1328 14.512 -14.414 14.512 z M152.77309375 35.0195 c4.8633 0 8.5938 -3.418 8.5938 -9.1406 c0 -5.7031 -3.7305 -9.1016 -8.5938 -9.1016 s-8.5938 3.3984 -8.5938 9.1016 c0 5.7227 3.7305 9.1406 8.5938 9.1406 z M192.7934375 16.934 l-10.469 0 l0 6.4063 l9.2773 0 l0 5.0977 l-9.2773 0 l0 6.3867 l10.469 0 l0 5.1758 l-16.367 0 l0 -28.223 l16.367 0 l0 5.1563 z M212.0504375 40.39063 c-6.0547 0 -10.781 -2.9102 -11.641 -8.2031 l6.0547 -1.3867 c0.39063 3.1641 2.7148 4.8047 5.8203 4.8047 c2.3828 0 4.2773 -1.0547 4.2578 -3.4375 c-0.019531 -2.6563 -3.1445 -3.4961 -6.582 -4.5508 c-4.1406 -1.2891 -8.5742 -2.8125 -8.5742 -8.0078 c0 -5.2539 4.2969 -8.2227 9.9609 -8.2227 c4.9609 0 9.9609 2.0117 11.094 7.4219 l-5.6641 1.4063 c-0.52734 -2.8125 -2.4219 -4.043 -5.0781 -4.043 c-2.3633 0 -4.375 0.97656 -4.375 3.3008 c0 2.168 2.7734 2.8906 5.9766 3.8477 c4.2578 1.2891 9.2969 2.9297 9.2969 8.5547 c0 5.9961 -5.0195 8.5156 -10.547 8.5156 z"></path>
    </g>
</svg>